<svg xmlns="http://www.w3.org/2000/svg" viewBox="0 0 853 853"><defs><style>.cls-1{fill:#a3d3d9;}.cls-2{fill:#000d29;}.cls-3{fill:#efbbab;}.cls-4,.cls-7{fill:none;stroke:#bf6d65;stroke-linecap:round;stroke-linejoin:round;isolation:isolate;}.cls-4{opacity:0.57;}.cls-5{fill:#212529;}.cls-6{fill:#aa0908;}.cls-7{opacity:0.54;}.cls-8{fill:#bf6d65;}.cls-9{fill:#4a1c00;}.cls-10{fill:#2b2a29;stroke:#2b2a29;stroke-miterlimit:10;}.cls-11{fill:#fff;}.cls-12{fill:#e6e6e6;}</style></defs><g id="Layer_2" data-name="Layer 2"><g id="Layer_1-2" data-name="Layer 1"><g id="Layer_2-2" data-name="Layer 2"><g id="Layer_2-2-2" data-name="Layer 2-2"><path class="cls-1" d="M853,426.5a424.62,424.62,0,0,1-92.11,264.75C682.78,789.79,562,853,426.5,853a428.49,428.49,0,0,1-63.5-4.71,4.62,4.62,0,0,1-.65-.09C154,816.43,0,637.27,0,426.5,0,191,191,0,426.5,0S853,191,853,426.5Z"/><path class="cls-2" d="M423.5,754.5c-.52,10.51-4,22.7-28,53-13.08,16.53-23.57,29.8-33.16,40.67h0a425.12,425.12,0,0,1-231.13-114c4.18-6.83,9.41-14.76,15.32-24.18,3.6-5.76,7.46-12.07,11.5-19,30.93-53.35,84.74-117.58,145.5-101.5A102.29,102.29,0,0,1,326,598.56c.31.15.6.32.9.49a134,134,0,0,1,30.6,23.45c11.46,11.8,12,17.24,36,63,4,7.62,7.49,14.18,10.55,19.88,3.31,6.17,6.1,11.34,8.45,15.77C421.62,738.38,424,744.43,423.5,754.5Z"/><path class="cls-2" d="M760.89,691.25C682.78,789.79,562,853,426.5,853a428.49,428.49,0,0,1-63.5-4.71,6.18,6.18,0,0,1-.62-.12C341.34,843.89,326.7,839,327,831c.48-13,38.82-66.33,61-102.65,1.77-2.9,3.44-5.7,5-8.35a86.36,86.36,0,0,1,11.05-14.62c23.52-25.76,69.46-54.63,116.56-75.4l2.5-1.1c7.6-3.3,15.21-6.38,22.75-9.2.75-.28,1.49-.56,2.23-.82,35.68-13.14,69.62-20.27,92.37-16.43a50.55,50.55,0,0,1,5,1.07c27.17,7.19,54.49,9.28,61.5,16.5,11.46,11.8,21,5.24,45,51A156,156,0,0,1,760.89,691.25Z"/><path class="cls-3" d="M387,728,326,601c0-18.79,4.24-20,23-20H522c18.79,0,26,34.21,2,47C524,628,413.48,738.79,387,728Z"/><path class="cls-3" d="M580.5,218.82,548,620,288,581,234.5,304.6c9.23-41.4,22.2-81.81,42.5-120.6l9-15c9-12,16-24,27-34a2.64,2.64,0,0,0,.38-.5H530.19c2.27,2.42,4.54,4.91,6.81,7.5C556.55,165.27,569.17,191.15,580.5,218.82Z"/><path class="cls-4" d="M452.5,437.5a27.43,27.43,0,0,0,10-8c1.33-1.72,4.41-5.7,5-11,.65-5.77-2-9.71-6-17a209,209,0,0,1-10-21c-4.82-12.44-1.83-24.62,0-34,3.16-16.15,8.34-20.81,5-27-2.76-5.11-8.78-6.55-19-9-8.86-2.12-24.85-6-30,1-1.28,1.73-1.06,3-1,18v13c0,6.09,0,23.08-8,40-4.4,9.33-8.36,8.61-12,18-2.08,5.37-5.65,14.57-1,22,3.68,5.88,10.56,7.53,13,8"/><path class="cls-5" d="M416.5,109.62c-.52.79-1,1.58-1.5,2.38C411.41,109.09,423.29,98.37,416.5,109.62Z"/><path class="cls-6" d="M371.5,481.5c.25,3.94,19.12,10.14,24,12,18.79,5.86,19,8.09,37,7,5.38-.8,5-1.29,16.5-4.5,15.64-4.1,18-3.86,32.5-12.5-10.43-5.66-17-7.65-26-11-3.48-1.41-13.2-6-19-5-.74,0-6.42,2.88-8,3-13-5.48-15.2-6.3-30,0C395.59,472.08,372.41,478.38,371.5,481.5Z"/><path class="cls-7" d="M415.5,422.5c-.9-1.3-4-5.4-9-6-2.48-.3-6.46.13-7,2s2.07,4.65,5,5a5.71,5.71,0,0,0,5-2,5.38,5.38,0,0,0,1-2"/><path class="cls-7" d="M440.5,424.5c4.56-7.45,25.88-2.94,12,2-3.28,1.17-6,0-5-3"/><path class="cls-8" d="M319.52,536.45a184.79,184.79,0,0,1,25.09,12.95c4,2.47,7.83,5.26,11.64,8a100.25,100.25,0,0,0,11.94,7.47,110.43,110.43,0,0,0,26.3,9.88c4.56,1.11,9.17,2.09,13.77,3.07a120.93,120.93,0,0,0,13.9,2.16,63.83,63.83,0,0,0,27.6-3.56c8.83-3.12,17-7.91,25-12.82,4-2.44,8-5,12-7.46s8-5,12.2-7.17a108.49,108.49,0,0,1,26.59-9.53,0,0,0,1,1,0,.1h0a116.73,116.73,0,0,0-26.28,10c-4.17,2.19-8.12,4.7-12.06,7.29s-7.9,5.12-11.9,7.62c-8,4.92-16.22,9.74-25.18,12.9a64.69,64.69,0,0,1-28,3.43,118.27,118.27,0,0,1-14-2.25c-4.61-1-9.2-2-13.78-3.15A111,111,0,0,1,368,565.32a103.13,103.13,0,0,1-12-7.58c-3.79-2.79-7.57-5.59-11.56-8.08a182.43,182.43,0,0,0-25-13.11,0,0,0,0,1,0-.07S319.49,536.44,319.52,536.45Z"/><path class="cls-9" d="M520.5,408.5c16-1,43-11,51.5-28.5,8.29-17.07,8-36,17-53,2-2,3-5,7-6,5-3,6-12,1-14-3-2-7-2-11-3-9-4-19-8-28-12-18-6-37-7-56-6-9,1-18,4-26,7-7,3-14,7-19,13-2,1-4,2-6,1-14-6-31-7-45-1-5.5-5.5-12-9-19-13-2-1-13.26-6-14-6a155,155,0,0,0-31-6c-11-1-21,0-32,1-20,4-39,8-58,15a30.43,30.43,0,0,0,1,21c16,12,21,32,27,51,4,9,10,16,17,22a30.38,30.38,0,0,1,7,5c20,13,44,13,66,7a48.05,48.05,0,0,0,23-17c9-12,12-26,20-39a11.84,11.84,0,0,0,1-10c-2-4-7-8-5-12,7-12,24-11,35-7,3,1,8,3,8,8-1,4-6,7-6,12,1,15,8.5,28.5,14.5,42.5,3,6,7,12,13,16C487.5,406.5,504.5,409.5,520.5,408.5Z"/><path class="cls-10" d="M490.5,298.5c-25.18,8.13-29.61,23.94-30,45,.06,15.73,0,24.06,12,40,25.81,28.67,73.21,20.73,93-6,3.56-6,5.45-10.83,8-27,3-19,1.3-19.87-1-26C562,300.15,523.55,290,490.5,298.5Z"/><path class="cls-10" d="M398.5,353.5c-10,31-19,45-55,45-30.38,0-51.87-20-59-45-4-14-6.2-38.92,4-51,9.92-11.75,37-11,52-11C370.88,291.5,412.09,311.37,398.5,353.5Z"/><path class="cls-11" d="M591.54,318.88c-1.85,1.29-8.4,3.62-8.72,3.73l-7.31-3.41c1.55-1.46,3-3.93,4.57-5.39,3.71.36,7.5,1.72,11.21,2.08.14-.07,1.44,1.26,1.16,1.91A2.58,2.58,0,0,1,591.54,318.88Z"/><path class="cls-5" d="M641,605c-6,0-17-5-18,5-2,11,2,28-11,32-4-2-9-1-11,3-3,6-3,14-10,17-9,4-18,2-26-1-13-5-22-14-34-22a53.56,53.56,0,0,1-15-15c-1-3-2-5-2-8V547.36a25.11,25.11,0,0,1,10.53-20.48l.24-.17A23.24,23.24,0,0,0,534,503.15V503c-2-13-5-20-7-33-4.07-26.47,2.42-32.31-6.5-61.5a97.43,97.43,0,0,1-4-17c-1.48-10.72-.61-18.36,0-26,1.2-15-.32-8.42,1-43,.33-8.57.47-10.37,2-39,2.32-43.59,2.3-45.38,2-49a157.88,157.88,0,0,0-13-50c-6.46-14.51-10.05-22.6-19-29-6.38-4.57-8.72-3.43-37-10-21.58-5-26.41-7.1-33.9-7.1-1,0-2,0-3.1.1-8.3.52-6.64,2-26,6-20.37,4.2-24,2.91-33,7a60.58,60.58,0,0,0-21,16c-12.09,14.37-9.29,25.64-18,45-8.21,18.27-13.61,13.15-23,32-6.62,13.29-5.83,18.51-15,40-5.76,13.49-3.3,26.34-5.5,31.5-6,14.05-4,24,9.5,69.5,5.19,17.48,3.37,32.85,4,43s.87,17.7,2,34c1.81,26.11,2.81,30.23,4,34,1.91,6,5.73,18.11,16,29,7.69,8.16,10.85,7,15,14,2.21,3.72,2.52,6.07,5,28,1.41,12.45,2.09,18.76,1,23a32,32,0,0,1-2.7,7,50.88,50.88,0,0,1-7.3,10c-21.44,24.41-32.16,36.61-35,39-3.3,2.77-2.14,1.6-43,29-15.33,10.28-16.11,10.86-19,12-19.73,7.78-29.42-1.09-48,5S149.75,712.94,147,711c-3.82-2.7,13.62-27.92,27-60,11.78-28.24,16.46-61.56,27.52-126.7,3.64-21.43,6.79-43.08,9.48-65.3,6.59-52.15,12.27-104,23.5-154.4,9.23-41.4,22.2-81.81,42.5-120.6l9-15c9-12,16-24,27-34a2.64,2.64,0,0,0,.38-.5c.64-1.07.77-2.65,1.62-3.5,11-11,21-21,34-29,2-1,5-2,7-3,10-4,20-4,30-2l9,3a81.44,81.44,0,0,1,20,12c.58-.89,1.08-1.68,1.5-2.38C425.71,95.66,441,84.11,458,86c12,2,22,8,33,15,9,7,17,12,25,19,4.73,4.73,9.46,9.46,14.19,14.5,2.27,2.42,4.54,4.91,6.81,7.5,19.55,23.27,32.17,49.15,43.5,76.82q1.26,3.08,2.5,6.18c25,66,40,133,48,203a369.67,369.67,0,0,1,0,94c-2,18-9,33-12,51-1,7-1,14,4,19,4,3,9,3,13,6C638,600,641,601,641,605Z"/><circle class="cls-12" cx="261" cy="697" r="9"/><circle class="cls-12" cx="350" cy="764" r="9"/><circle class="cls-12" cx="238" cy="774" r="9"/><circle class="cls-12" cx="178" cy="736" r="9"/><circle class="cls-12" cx="311" cy="674" r="9"/><circle class="cls-12" cx="288" cy="745" r="9"/><circle class="cls-12" cx="414" cy="779" r="9"/><circle class="cls-12" cx="385" cy="837" r="9"/><circle class="cls-12" cx="297" cy="810" r="9"/><circle class="cls-12" cx="482" cy="745" r="9"/><circle class="cls-12" cx="562" cy="747" r="9"/><circle class="cls-12" cx="509" cy="683" r="9"/><circle class="cls-12" cx="517" cy="819" r="9"/><circle class="cls-12" cx="650" cy="755" r="9"/><circle class="cls-12" cx="609" cy="683" r="9"/><circle class="cls-12" cx="711" cy="674" r="9"/><path class="cls-11" d="M262.5,307.5c1.95-1.13,8.67-2.91,9-3l7,4c-1.67,1.33-3.33,3.67-5,5-3.67-.67-7.33-2.33-11-3-.14.05-1.33-1.38-1-2A2.53,2.53,0,0,1,262.5,307.5Z"/></g></g></g></g></svg>